<?xml version="1.0" standalone="no"?>
<!DOCTYPE svg PUBLIC "-//W3C//DTD SVG 20010904//EN"
 "http://www.w3.org/TR/2001/REC-SVG-20010904/DTD/svg10.dtd">
<svg version="1.0" xmlns="http://www.w3.org/2000/svg"
 width="109.000000pt" height="109.000000pt" viewBox="0 0 109.000000 109.000000"
 preserveAspectRatio="xMidYMid meet">

<g transform="translate(0.000000,109.000000) scale(0.100000,-0.100000)"
fill="#000000" stroke="none">
<path d="M0 545 l0 -545 545 0 545 0 0 545 0 545 -545 0 -545 0 0 -545z m532
367 c10 -8 88 -70 171 -139 84 -68 175 -138 202 -154 28 -16 44 -29 37 -29
-26 0 -74 32 -209 142 -204 167 -226 183 -230 173 -11 -35 -98 -150 -154 -206
-65 -64 -205 -166 -215 -156 -2 2 26 24 63 48 126 82 282 261 301 344 5 24 7
26 10 10 3 -11 13 -26 24 -33z m93 -242 c-38 -4 -108 -10 -155 -13 l-85 -6 75
9 c41 6 82 12 90 14 8 2 44 4 80 3 l65 0 -70 -7z m155 -94 c23 -28 -37 -267
-73 -290 -13 -8 -21 -7 -34 7 -16 16 -16 17 0 17 9 0 17 -5 17 -11 0 -19 20 2
36 39 9 20 25 79 35 131 21 101 18 116 -26 107 -11 -3 -74 -10 -140 -17 l-120
-12 3 -121 c2 -67 -1 -168 -6 -226 -8 -87 -9 -70 -4 95 6 248 7 246 -83 243
-36 -1 -68 1 -72 5 -3 4 23 7 58 8 35 0 132 8 214 18 192 24 181 23 195 7z"/>
</g>
</svg>
