<?xml version="1.0" standalone="no"?>
<!DOCTYPE svg PUBLIC "-//W3C//DTD SVG 20010904//EN"
 "http://www.w3.org/TR/2001/REC-SVG-20010904/DTD/svg10.dtd">
<svg version="1.0" xmlns="http://www.w3.org/2000/svg"
 width="109.000000pt" height="109.000000pt" viewBox="0 0 109.000000 109.000000"
 preserveAspectRatio="xMidYMid meet">

<g transform="translate(0.000000,109.000000) scale(0.100000,-0.100000)"
fill="#000000" stroke="none">
<path d="M0 545 l0 -545 545 0 545 0 0 545 0 545 -545 0 -545 0 0 -545z m508
245 c18 -27 22 -47 22 -105 l0 -71 169 2 c137 2 173 0 188 -12 17 -14 17 -15
-2 -6 -20 10 -329 11 -338 2 -3 -3 -7 -78 -9 -167 -1 -89 -4 -160 -6 -158 -2
2 -5 108 -6 237 -3 254 -7 273 -63 318 -24 19 -25 20 -3 8 14 -8 35 -30 48
-48z"/>
</g>
</svg>
